<svg xmlns="http://www.w3.org/2000/svg" width="110" height="471" fill="none"><g clip-path="url(#a)"><path fill="#FAFBFB" d="M0 0h825v193H0zM0 471h825V193H0z"/><g filter="url(#b)"><path fill="#2F6F44" d="M98 170.558h76V193H-54v-22.442H98ZM98 0H-54v22.442h228V0H98Z"/></g><g filter="url(#c)"><path fill="#CEA51B" d="M274.988 148.116c-7.481 4.489-15.261 9.276-27.529 9.276s-20.048-4.787-27.529-9.276c11.371-8.079 19.749-21.843 27.529-35.607 7.481 13.764 15.859 27.528 27.529 35.607Zm-27.529-67.325c7.481-13.765 16.158-27.828 27.529-35.907-7.481-4.489-15.261-9.276-27.529-9.276s-20.048 4.787-27.529 9.276c11.371 8.079 19.749 22.142 27.529 35.907Zm-164.873 0c7.48-13.765 16.158-27.828 27.529-35.907-7.481-4.489-15.26-9.276-27.529-9.276-12.268 0-20.048 4.787-27.529 9.276 11.37 8.079 19.75 22.142 27.53 35.907Zm109.816 0c7.48-13.765 16.158-27.828 27.528-35.907-7.48-4.489-15.26-9.276-27.528-9.276-12.269 0-20.048 4.787-27.529 9.276 11.37 8.079 20.048 22.142 27.529 35.907Zm-55.058 0c7.481-13.765 16.158-27.828 27.529-35.907-7.481-4.489-15.261-9.276-27.529-9.276s-20.048 4.787-27.528 9.276c11.669 8.079 20.048 22.142 27.528 35.907ZM55.057 96.65c-5.386 0-20.347-2.993-27.528-15.86C20.347 93.658 5.685 96.65 0 96.65c5.386 0 20.347 2.992 27.529 15.859 7.181-13.166 21.843-15.86 27.528-15.86Zm0-51.467c-7.48-4.488-15.26-9.276-27.528-9.276C15.26 35.907 7.48 40.695 0 45.183c11.37 8.08 19.749 21.843 27.529 35.907 7.48-14.064 16.158-28.127 27.528-35.907Zm82.287 67.026c-7.48 13.765-16.158 27.828-27.528 35.608 7.48 4.488 15.26 9.276 27.528 9.276 12.268 0 20.048-4.788 27.529-9.276-11.371-7.78-19.749-21.544-27.529-35.608Zm55.058 0c-7.481 13.765-16.159 27.828-27.529 35.608 7.481 4.488 15.26 9.276 27.529 9.276 12.268 0 20.048-4.788 27.528-9.276-11.37-7.78-20.048-21.544-27.528-35.608Zm-109.816 0c-7.48 13.765-16.158 27.828-27.529 35.608 7.481 4.488 15.26 9.276 27.53 9.276 12.267 0 20.047-4.788 27.528-9.276-11.67-7.78-20.048-21.544-27.529-35.608Zm-55.057 0C20.049 125.974 11.37 140.037 0 147.817c7.48 4.488 15.26 9.276 27.529 9.276 12.268 0 20.048-4.788 27.528-9.276-11.37-7.78-20.048-21.544-27.528-35.608Zm164.873-31.418c-7.182 12.866-21.844 15.859-27.529 15.859 5.386 0 20.347 2.992 27.529 15.859 7.181-12.867 21.843-15.86 27.528-15.86-5.685 0-20.347-2.992-27.528-15.858Zm55.057 0c-7.181 12.866-21.843 15.859-27.529 15.859 5.386 0 20.348 2.992 27.529 15.859 7.181-12.867 21.843-15.86 27.529-15.86-5.686 0-20.647-2.992-27.529-15.858Zm-110.115 0c-7.181 12.866-21.843 15.859-27.528 15.859 5.386 0 20.347 2.992 27.528 15.859 7.182-12.867 21.844-15.86 27.529-15.86-5.386 0-20.347-2.992-27.529-15.858Zm-54.758 0C75.405 93.657 60.743 96.65 55.057 96.65c5.386 0 20.348 2.992 27.53 15.859 7.18-12.867 21.842-15.86 27.528-15.86-5.686 0-20.647-2.992-27.529-15.858Zm274.689 0c7.48-13.765 16.158-27.828 27.528-35.907-7.48-4.489-15.26-9.276-27.528-9.276-12.269 0-20.049 4.787-27.529 9.276 11.37 8.079 20.048 22.142 27.529 35.907Zm55.057 0c7.481-13.765 16.158-27.828 27.529-35.907-7.481-4.489-15.261-9.276-27.529-9.276s-20.048 4.787-27.529 9.276c11.371 8.079 19.749 22.142 27.529 35.907Zm-110.115 0c7.481-13.765 16.158-27.828 27.529-35.907-7.481-4.489-15.261-9.276-27.529-9.276s-20.048 4.787-27.529 9.276c11.67 8.079 20.049 22.142 27.529 35.907Zm219.93 0c7.481-13.765 16.159-27.828 27.529-35.907-7.481-4.489-15.26-9.276-27.529-9.276-12.268 0-20.048 4.787-27.528 9.276 11.67 8.079 20.048 22.142 27.528 35.907Zm-55.057 0c7.481-13.765 16.158-27.828 27.529-35.907-7.481-4.489-15.261-9.276-27.529-9.276s-20.048 4.787-27.529 9.276c11.67 8.079 20.048 22.142 27.529 35.907Zm55.057 31.418c-7.48 13.765-16.158 27.828-27.528 35.608 7.48 4.488 15.26 9.276 27.528 9.276 12.269 0 20.048-4.788 27.529-9.276-11.37-7.78-19.749-21.544-27.529-35.608Zm-164.872 0c-7.481 13.765-16.159 27.828-27.529 35.608 7.48 4.488 15.26 9.276 27.529 9.276 12.268 0 20.048-4.788 27.528-9.276-11.37-7.78-20.048-21.544-27.528-35.608Zm164.872-31.418c-7.181 12.866-21.843 15.859-27.528 15.859 5.386 0 20.347 2.992 27.528 15.859 7.182-12.867 21.844-15.86 27.529-15.86-5.386 0-20.347-2.992-27.529-15.858Zm-55.057 31.418c-7.481 13.765-16.158 27.828-27.529 35.608 7.481 4.488 15.261 9.276 27.529 9.276s20.048-4.788 27.529-9.276c-11.371-7.78-19.749-21.544-27.529-35.608Zm-54.758 0c-7.481 13.765-16.158 27.828-27.529 35.608 7.481 4.488 15.261 9.276 27.529 9.276s20.048-4.788 27.529-9.276c-11.67-7.78-20.048-21.544-27.529-35.608Zm-110.115 0c-7.48 13.765-16.158 27.828-27.529 35.608 7.481 4.488 15.261 9.276 27.529 9.276s20.048-4.788 27.529-9.276c-11.371-7.78-19.749-21.544-27.529-35.608Zm110.115-31.418c-7.182 12.866-21.844 15.859-27.529 15.859 5.386 0 20.347 2.992 27.529 15.859 7.181-12.867 21.843-15.86 27.529-15.86-5.686 0-20.647-2.992-27.529-15.858Zm-55.057 0c-7.182 12.866-21.844 15.859-27.529 15.859 5.386 0 20.347 2.992 27.529 15.859 7.181-12.867 21.843-15.86 27.528-15.86-5.386 0-20.347-2.992-27.528-15.858Zm109.815 0c-7.181 12.866-21.843 15.859-27.529 15.859 5.386 0 20.348 2.992 27.529 15.859 7.181-12.867 21.843-15.86 27.529-15.86-5.386 0-20.348-2.992-27.529-15.858Zm-164.873 0c-7.181 12.866-21.843 15.859-27.529 15.859 5.386 0 20.348 2.992 27.529 15.859 7.182-12.867 21.844-15.86 27.529-15.86-5.386 0-20.347-2.992-27.529-15.858ZM714.549 96.65c5.386 0 20.347 2.992 27.529 15.859 7.181-12.867 21.843-15.86 27.528-15.86-5.386 0-20.347-2.992-27.528-15.858-7.182 12.866-21.844 15.859-27.529 15.859Zm27.529 15.559c-7.481 13.765-16.158 27.828-27.529 35.608 7.481 4.488 15.261 9.276 27.529 9.276s20.048-4.788 27.528-9.276c-11.37-7.78-20.048-21.544-27.528-35.608ZM577.205 80.791c-7.182 12.866-21.844 15.859-27.529 15.859 5.386 0 20.347 2.992 27.529 15.859 7.181-12.867 21.843-15.86 27.528-15.86-5.685 0-20.646-2.992-27.528-15.858Zm192.401 67.325c7.481 4.489 15.261 9.276 27.529 9.276s20.048-4.787 27.529-9.276c-11.371-8.079-20.048-21.843-27.529-35.607-7.78 13.764-16.158 27.528-27.529 35.607Zm0-51.466c5.386 0 20.348 2.992 27.529 15.859 7.182-12.867 21.843-15.86 27.529-15.86-5.386 0-20.347-2.992-27.529-15.858-7.181 12.866-22.143 15.859-27.529 15.859Zm55.058-51.467c-7.481-4.488-15.261-9.276-27.529-9.276s-20.048 4.788-27.529 9.276c11.371 8.08 19.749 21.843 27.529 35.907 7.481-14.064 15.859-28.127 27.529-35.907Zm-192.402 67.026c-7.48 13.765-16.158 27.828-27.529 35.608 7.481 4.488 15.261 9.276 27.529 9.276s20.048-4.788 27.529-9.276c-11.67-7.78-20.048-21.544-27.529-35.608Zm54.758 0c-7.48 13.765-16.158 27.828-27.528 35.608 7.48 4.488 15.26 9.276 27.528 9.276 12.268 0 20.048-4.788 27.529-9.276-11.371-7.78-19.749-21.544-27.529-35.608Zm0-31.418c-7.181 12.866-21.843 15.859-27.528 15.859 5.386 0 20.347 2.992 27.528 15.859 7.182-12.867 21.844-15.86 27.529-15.86-5.386 0-20.347-2.992-27.529-15.858Zm-109.815 31.418c-7.481 13.765-16.158 27.828-27.529 35.608 7.481 4.488 15.261 9.276 27.529 9.276s20.048-4.788 27.528-9.276c-11.37-7.78-20.048-21.544-27.528-35.608Zm55.057-31.418c-7.181 12.866-21.843 15.859-27.529 15.859 5.387 0 20.348 2.992 27.529 15.859 7.182-12.867 21.844-15.86 27.529-15.86-5.685 0-20.647-2.992-27.529-15.858Zm109.816 0c7.48-13.765 16.158-27.828 27.528-35.907-7.48-4.489-15.26-9.276-27.528-9.276-12.268 0-20.048 4.787-27.529 9.276 11.371 8.079 20.048 22.142 27.529 35.907Zm-164.873 0c7.48-13.765 16.158-27.828 27.528-35.907-7.48-4.489-15.26-9.276-27.528-9.276-12.268 0-20.048 4.787-27.529 9.276 11.371 8.079 20.048 22.142 27.529 35.907Zm55.057 0c7.481-13.765 16.158-27.828 27.529-35.907-7.481-4.489-15.261-9.276-27.529-9.276s-20.048 4.787-27.529 9.276c11.371 8.079 19.749 22.142 27.529 35.907Zm54.758 0c7.481-13.765 16.158-27.828 27.529-35.907-7.481-4.489-15.261-9.276-27.529-9.276s-20.048 4.787-27.528 9.276c11.669 8.079 20.048 22.142 27.528 35.907Z"/></g><g fill="#07C" filter="url(#d)"><path d="m274.634 148.328.354-.212c-11.67-8.079-20.048-21.843-27.529-35.607-7.78 13.764-16.158 27.528-27.529 35.607l.354.212c7.373 4.426 15.1 9.064 27.175 9.064 12.075 0 19.802-4.638 27.175-9.064ZM109.963 147.716c11.298-7.801 19.933-21.802 27.381-35.507 7.78 14.064 16.158 27.828 27.529 35.608 11.37-7.78 20.048-21.843 27.529-35.608 7.48 14.064 16.158 27.828 27.528 35.608l-.353.212c-7.373 4.426-15.1 9.064-27.175 9.064-12.076 0-19.802-4.638-27.176-9.064l-.353-.212-.354.212c-7.373 4.426-15.1 9.064-27.175 9.064-12.186 0-19.944-4.724-27.379-9.186-7.435 4.462-15.193 9.186-27.379 9.186-12.268 0-20.048-4.788-27.529-9.276-7.48 4.488-15.26 9.276-27.528 9.276-12.268 0-20.048-4.788-27.529-9.276 11.37-7.78 20.048-21.843 27.529-35.608 7.48 14.064 16.158 27.828 27.528 35.608 11.37-7.78 20.049-21.843 27.53-35.608 7.447 14.003 15.785 27.709 27.376 35.507Z"/><path d="M494.619 147.817c11.37-7.78 20.048-21.843 27.528-35.608 7.78 14.064 16.159 27.828 27.529 35.608 11.371-7.78 20.048-21.843 27.529-35.608 7.48 14.064 16.158 27.828 27.528 35.608 11.371-7.78 20.048-21.843 27.529-35.608 7.448 14.003 15.787 27.709 27.377 35.507 11.298-7.801 19.933-21.802 27.381-35.507 7.78 14.064 16.158 27.828 27.529 35.608 11.371-7.78 20.048-21.843 27.529-35.608 7.48 14.064 16.158 27.828 27.528 35.608l-.353.212c-7.373 4.426-15.1 9.064-27.175 9.064-12.075 0-19.802-4.638-27.176-9.064l-.353-.212-.353.212c-7.374 4.426-15.101 9.064-27.176 9.064-12.075 0-19.802-4.638-27.175-9.064l-.204-.122-.204.122c-7.373 4.426-15.1 9.064-27.175 9.064-12.075 0-19.802-4.638-27.175-9.064l-.354-.212-.353.212c-7.373 4.426-15.1 9.064-27.175 9.064-12.075 0-19.802-4.638-27.175-9.064l-.354-.212-.354.212c-7.373 4.426-15.1 9.064-27.175 9.064-12.075 0-19.802-4.638-27.175-9.064l-.353-.212-.354.212c-7.373 4.426-15.1 9.064-27.175 9.064-12.075 0-19.802-4.638-27.175-9.064l-.204-.122-.204.122c-7.373 4.426-15.1 9.064-27.175 9.064-12.075 0-19.802-4.638-27.175-9.064l-.354-.212-.353.212c-7.374 4.426-15.1 9.064-27.175 9.064-12.076 0-19.803-4.638-27.176-9.064l-.353-.212-.354.212c-7.373 4.426-15.1 9.064-27.175 9.064-12.075 0-19.802-4.638-27.175-9.064l-.354-.212c11.371-7.78 20.049-21.843 27.529-35.608 7.78 14.064 16.158 27.828 27.529 35.608 11.37-7.78 20.048-21.843 27.529-35.608 7.48 14.064 16.158 27.828 27.528 35.608 11.371-7.78 20.048-21.843 27.529-35.608 7.448 14.003 15.786 27.709 27.377 35.507 11.298-7.801 19.933-21.802 27.381-35.507 7.78 14.064 16.158 27.828 27.529 35.608ZM769.96 148.329l-.354-.213c11.371-8.079 19.749-21.843 27.529-35.607 7.481 13.764 16.158 27.528 27.529 35.607l-.354.213c-7.373 4.425-15.1 9.063-27.175 9.063-12.075 0-19.802-4.638-27.175-9.063Z"/></g><g fill="#07C" filter="url(#e)"><path d="M274.84 44.99c-11.298 8.095-19.933 22.096-27.381 35.8-7.78-13.764-16.158-27.827-27.529-35.906-11.37 8.079-20.048 22.142-27.528 35.907-7.481-13.765-16.159-27.828-27.529-35.907-11.371 8.079-20.048 22.142-27.529 35.907-7.448-13.705-15.786-27.706-27.377-35.802-11.298 8.096-19.933 22.097-27.38 35.802-7.78-13.765-16.16-27.828-27.53-35.907 7.481-4.489 15.26-9.276 27.53-9.276 12.185 0 19.943 4.724 27.378 9.186 7.435-4.462 15.193-9.186 27.379-9.186 12.075 0 19.802 4.638 27.176 9.064l.353.212.353-.212c7.374-4.426 15.1-9.064 27.176-9.064 12.075 0 19.802 4.638 27.175 9.064l.353.212.354-.212c7.373-4.426 15.1-9.064 27.175-9.064 12.075 0 19.802 4.638 27.175 9.064l.204.122.204-.122c7.373-4.426 15.1-9.064 27.175-9.064 12.075 0 19.802 4.638 27.175 9.064l.354.212.353-.212c7.373-4.426 15.1-9.064 27.176-9.064 12.075 0 19.802 4.638 27.175 9.064l.353.212.353-.212c7.374-4.426 15.101-9.064 27.176-9.064 12.075 0 19.802 4.638 27.175 9.064l.204.122.204-.122c7.373-4.426 15.1-9.064 27.175-9.064 12.075 0 19.802 4.638 27.176 9.064l.353.212.353-.212c7.373-4.426 15.1-9.064 27.175-9.064 12.076 0 19.802 4.638 27.175 9.064l.354.212.354-.212c7.373-4.426 15.1-9.064 27.175-9.064 12.075 0 19.802 4.638 27.175 9.064l.353.212.354-.212c7.373-4.426 15.1-9.064 27.175-9.064 12.075 0 19.802 4.638 27.175 9.064l.204.122.204-.122c7.373-4.426 15.1-9.064 27.175-9.064 12.075 0 19.802 4.638 27.176 9.064l.353.212.353-.212c7.374-4.426 15.101-9.064 27.176-9.064 12.075 0 19.802 4.638 27.175 9.064l.353.212c-11.37 8.079-20.048 22.142-27.528 35.907-7.481-13.765-16.158-27.828-27.529-35.907-11.371 8.079-20.048 22.142-27.529 35.907-7.448-13.705-15.786-27.706-27.377-35.802-11.298 8.096-19.933 22.097-27.381 35.802-7.78-13.765-16.158-27.828-27.529-35.907-11.37 8.079-20.048 22.142-27.528 35.907-7.481-13.765-16.158-27.828-27.529-35.907-11.37 8.079-20.048 22.142-27.529 35.907-7.48-13.765-15.858-27.828-27.528-35.907-11.371 8.079-20.048 22.142-27.529 35.907-7.448-13.705-15.786-27.706-27.377-35.802-11.298 8.096-19.933 22.097-27.381 35.802-7.78-13.765-16.158-27.828-27.529-35.907-11.37 8.079-20.048 22.142-27.528 35.907-7.481-13.765-16.159-27.828-27.529-35.907-11.371 8.079-20.048 22.142-27.529 35.907-7.448-13.705-15.786-27.706-27.377-35.802ZM27.529 35.907c12.268 0 20.048 4.788 27.528 9.276-11.37 7.78-20.048 21.843-27.528 35.907C19.749 67.026 11.37 53.262 0 45.183c7.48-4.488 15.26-9.276 27.529-9.276ZM824.31 44.97l.354.213c-11.67 7.78-20.048 21.843-27.529 35.907-7.78-14.064-16.158-27.828-27.529-35.907l.354-.212c7.373-4.426 15.1-9.064 27.175-9.064 12.075 0 19.802 4.638 27.175 9.064Z"/></g><g fill="#07C" filter="url(#f)"><path d="M274.988 44.884c-11.371 8.079-20.048 22.142-27.529 35.907-7.78-13.765-16.158-27.828-27.529-35.907l.354-.212c7.373-4.426 15.1-9.064 27.175-9.064 12.075 0 19.802 4.638 27.175 9.064l.354.212ZM164.873 44.884c-11.371 8.079-20.048 22.142-27.529 35.907-7.48-13.765-15.859-27.828-27.528-35.907 7.48-4.489 15.26-9.276 27.528-9.276 12.075 0 19.802 4.638 27.176 9.064l.353.212ZM27.529 35.907c12.268 0 20.048 4.788 27.528 9.276-11.37 7.78-20.048 21.843-27.528 35.907C19.749 67.026 11.37 53.262 0 45.183c7.48-4.488 15.26-9.276 27.529-9.276ZM384.803 44.884c-11.37 8.079-20.048 22.142-27.528 35.907-7.481-13.765-16.159-27.828-27.529-35.907l.353-.212c7.373-4.426 15.1-9.064 27.176-9.064 12.075 0 19.802 4.638 27.175 9.064l.353.212ZM494.619 44.884c-11.371 8.079-20.048 22.142-27.529 35.907-7.481-13.765-15.859-27.828-27.529-35.907l.354-.212c7.373-4.426 15.1-9.064 27.175-9.064 12.075 0 19.802 4.638 27.176 9.064l.353.212ZM824.31 44.97l.354.213c-11.67 7.78-20.048 21.843-27.529 35.907-7.78-14.064-16.158-27.828-27.529-35.907l.354-.212c7.373-4.426 15.1-9.064 27.175-9.064 12.075 0 19.802 4.638 27.175 9.064ZM604.733 44.884c-11.37 8.079-20.048 22.142-27.528 35.907-7.481-13.765-16.158-27.828-27.529-35.907l.354-.212c7.373-4.426 15.1-9.064 27.175-9.064 12.075 0 19.802 4.638 27.175 9.064l.353.212ZM714.549 44.884c-11.371 8.079-20.048 22.142-27.529 35.907-7.48-13.765-15.859-27.828-27.528-35.907l.353-.212c7.373-4.426 15.1-9.064 27.175-9.064 12.075 0 19.802 4.638 27.176 9.064l.353.212Z"/></g><g fill="#07C" filter="url(#g)"><path d="M164.873 147.817c11.37-7.78 20.048-21.843 27.529-35.608 7.48 14.064 16.158 27.828 27.528 35.608l-.353.212c-7.373 4.426-15.1 9.064-27.175 9.064-12.269 0-20.048-4.788-27.529-9.276ZM55.057 147.817c11.37-7.78 20.048-21.843 27.53-35.608 7.48 14.064 15.858 27.828 27.528 35.608-7.481 4.488-15.26 9.276-27.529 9.276-12.268 0-20.048-4.788-27.529-9.276ZM494.619 147.817c11.37-7.78 20.048-21.843 27.528-35.608 7.78 14.064 16.159 27.828 27.529 35.608l-.353.212c-7.374 4.426-15.1 9.064-27.176 9.064-12.075 0-19.802-4.638-27.175-9.064l-.353-.212ZM384.803 147.817c11.371-7.78 20.048-21.843 27.529-35.608 7.48 14.064 15.859 27.828 27.529 35.608l-.354.212c-7.373 4.426-15.1 9.064-27.175 9.064-12.075 0-19.802-4.638-27.175-9.064l-.354-.212ZM274.688 147.817c11.371-7.78 20.048-21.843 27.529-35.608 7.78 14.064 16.158 27.828 27.529 35.608l-.354.212c-7.373 4.426-15.1 9.064-27.175 9.064-12.075 0-19.802-4.638-27.175-9.064l-.354-.212ZM714.549 147.817c11.37-7.78 20.048-21.843 27.529-35.608 7.48 14.064 16.158 27.828 27.528 35.608l-.353.212c-7.373 4.426-15.1 9.064-27.175 9.064-12.075 0-19.802-4.638-27.176-9.064l-.353-.212ZM604.733 147.817c11.371-7.78 20.048-21.843 27.529-35.608 7.481 14.064 15.859 27.828 27.529 35.608l-.353.212c-7.374 4.426-15.101 9.064-27.176 9.064-12.075 0-19.802-4.638-27.175-9.064l-.354-.212Z"/></g><g fill="#D1383D" filter="url(#h)"><path d="M27.529 81C34.71 93.867 49.67 96.859 55.057 96.859c-5.685 0-20.347 2.693-27.528 15.859C20.347 99.851 5.386 96.858 0 96.858c5.685 0 20.347-2.991 27.529-15.858ZM219.93 96.859c5.686 0 20.348-2.992 27.529-15.859 6.882 12.867 21.843 15.859 27.529 15.859-5.686 0-20.348 2.992-27.529 15.859-7.181-12.867-22.143-15.86-27.529-15.86ZM109.816 96.859c5.685 0 20.347-2.992 27.528-15.859 7.182 12.867 22.143 15.859 27.529 15.859-5.685 0-20.347 2.992-27.529 15.859-7.181-12.867-22.142-15.86-27.528-15.86ZM329.746 96.859c5.685 0 20.347-2.992 27.529-15.859 7.181 12.867 22.142 15.859 27.528 15.859-5.685 0-20.347 2.992-27.528 15.859-7.182-12.867-22.143-15.86-27.529-15.86ZM439.561 96.859c5.686 0 20.348-2.992 27.529-15.859 7.181 12.867 22.143 15.859 27.529 15.859-5.686 0-20.348 2.992-27.529 15.859-7.181-12.867-22.143-15.86-27.529-15.86ZM549.676 96.859c5.685 0 20.347-2.992 27.529-15.859 6.882 12.867 21.843 15.859 27.528 15.859-5.685 0-20.347 2.992-27.528 15.859-7.182-12.867-22.143-15.86-27.529-15.86ZM797.135 112.718c-7.181-12.867-22.143-15.86-27.529-15.86 5.386 0 20.348-2.991 27.529-15.858 7.182 12.867 22.143 15.859 27.529 15.859-5.686 0-20.347 2.992-27.529 15.859ZM659.492 96.859c5.685 0 20.347-2.992 27.528-15.859 7.182 12.867 22.143 15.859 27.529 15.859-5.685 0-20.347 2.992-27.529 15.859-7.181-12.867-22.142-15.86-27.528-15.86Z"/></g><g filter="url(#i)"><path fill="#07C" d="M98 448.558h76V471H-54v-22.442H98Zm0 0h76V471H-54v-22.442H98Z"/></g></g><defs><filter id="b" width="228" height="197" x="-54" y="0" color-interpolation-filters="sRGB" filterUnits="userSpaceOnUse"><feFlood flood-opacity="0" result="BackgroundImageFix"/><feBlend in="SourceGraphic" in2="BackgroundImageFix" result="shape"/><feColorMatrix in="SourceAlpha" result="hardAlpha" values="0 0 0 0 0 0 0 0 0 0 0 0 0 0 0 0 0 0 127 0"/><feOffset dy="4"/><feGaussianBlur stdDeviation="2"/><feComposite in2="hardAlpha" k2="-1" k3="1" operator="arithmetic"/><feColorMatrix values="0 0 0 0 0 0 0 0 0 0 0 0 0 0 0 0 0 0 0.25 0"/><feBlend in2="shape" result="effect1_innerShadow_906_3823"/></filter><filter id="c" width="824.664" height="125.785" x="0" y="35.608" color-interpolation-filters="sRGB" filterUnits="userSpaceOnUse"><feFlood flood-opacity="0" result="BackgroundImageFix"/><feBlend in="SourceGraphic" in2="BackgroundImageFix" result="shape"/><feColorMatrix in="SourceAlpha" result="hardAlpha" values="0 0 0 0 0 0 0 0 0 0 0 0 0 0 0 0 0 0 127 0"/><feOffset dy="4"/><feGaussianBlur stdDeviation="2"/><feComposite in2="hardAlpha" k2="-1" k3="1" operator="arithmetic"/><feColorMatrix values="0 0 0 0 0 0 0 0 0 0 0 0 0 0 0 0 0 0 0.25 0"/><feBlend in2="shape" result="effect1_innerShadow_906_3823"/></filter><filter id="d" width="824.664" height="49.183" x="0" y="112.209" color-interpolation-filters="sRGB" filterUnits="userSpaceOnUse"><feFlood flood-opacity="0" result="BackgroundImageFix"/><feBlend in="SourceGraphic" in2="BackgroundImageFix" result="shape"/><feColorMatrix in="SourceAlpha" result="hardAlpha" values="0 0 0 0 0 0 0 0 0 0 0 0 0 0 0 0 0 0 127 0"/><feOffset dy="4"/><feGaussianBlur stdDeviation="2"/><feComposite in2="hardAlpha" k2="-1" k3="1" operator="arithmetic"/><feColorMatrix values="0 0 0 0 0 0 0 0 0 0 0 0 0 0 0 0 0 0 0.25 0"/><feBlend in2="shape" result="effect1_innerShadow_906_3823"/></filter><filter id="e" width="824.664" height="49.482" x="0" y="35.608" color-interpolation-filters="sRGB" filterUnits="userSpaceOnUse"><feFlood flood-opacity="0" result="BackgroundImageFix"/><feBlend in="SourceGraphic" in2="BackgroundImageFix" result="shape"/><feColorMatrix in="SourceAlpha" result="hardAlpha" values="0 0 0 0 0 0 0 0 0 0 0 0 0 0 0 0 0 0 127 0"/><feOffset dy="4"/><feGaussianBlur stdDeviation="2"/><feComposite in2="hardAlpha" k2="-1" k3="1" operator="arithmetic"/><feColorMatrix values="0 0 0 0 0 0 0 0 0 0 0 0 0 0 0 0 0 0 0.25 0"/><feBlend in2="shape" result="effect1_innerShadow_906_3823"/></filter><filter id="f" width="824.664" height="49.482" x="0" y="35.608" color-interpolation-filters="sRGB" filterUnits="userSpaceOnUse"><feFlood flood-opacity="0" result="BackgroundImageFix"/><feBlend in="SourceGraphic" in2="BackgroundImageFix" result="shape"/><feColorMatrix in="SourceAlpha" result="hardAlpha" values="0 0 0 0 0 0 0 0 0 0 0 0 0 0 0 0 0 0 127 0"/><feOffset dy="4"/><feGaussianBlur stdDeviation="2"/><feComposite in2="hardAlpha" k2="-1" k3="1" operator="arithmetic"/><feColorMatrix values="0 0 0 0 0 0 0 0 0 0 0 0 0 0 0 0 0 0 0.25 0"/><feBlend in2="shape" result="effect1_innerShadow_906_3823"/></filter><filter id="g" width="714.549" height="48.884" x="55.057" y="112.209" color-interpolation-filters="sRGB" filterUnits="userSpaceOnUse"><feFlood flood-opacity="0" result="BackgroundImageFix"/><feBlend in="SourceGraphic" in2="BackgroundImageFix" result="shape"/><feColorMatrix in="SourceAlpha" result="hardAlpha" values="0 0 0 0 0 0 0 0 0 0 0 0 0 0 0 0 0 0 127 0"/><feOffset dy="4"/><feGaussianBlur stdDeviation="2"/><feComposite in2="hardAlpha" k2="-1" k3="1" operator="arithmetic"/><feColorMatrix values="0 0 0 0 0 0 0 0 0 0 0 0 0 0 0 0 0 0 0.25 0"/><feBlend in2="shape" result="effect1_innerShadow_906_3823"/></filter><filter id="h" width="824.664" height="35.718" x="0" y="81" color-interpolation-filters="sRGB" filterUnits="userSpaceOnUse"><feFlood flood-opacity="0" result="BackgroundImageFix"/><feBlend in="SourceGraphic" in2="BackgroundImageFix" result="shape"/><feColorMatrix in="SourceAlpha" result="hardAlpha" values="0 0 0 0 0 0 0 0 0 0 0 0 0 0 0 0 0 0 127 0"/><feOffset dy="4"/><feGaussianBlur stdDeviation="2"/><feComposite in2="hardAlpha" k2="-1" k3="1" operator="arithmetic"/><feColorMatrix values="0 0 0 0 0 0 0 0 0 0 0 0 0 0 0 0 0 0 0.25 0"/><feBlend in2="shape" result="effect1_innerShadow_906_3823"/></filter><filter id="i" width="228" height="26.442" x="-54" y="448.558" color-interpolation-filters="sRGB" filterUnits="userSpaceOnUse"><feFlood flood-opacity="0" result="BackgroundImageFix"/><feBlend in="SourceGraphic" in2="BackgroundImageFix" result="shape"/><feColorMatrix in="SourceAlpha" result="hardAlpha" values="0 0 0 0 0 0 0 0 0 0 0 0 0 0 0 0 0 0 127 0"/><feOffset dy="4"/><feGaussianBlur stdDeviation="2"/><feComposite in2="hardAlpha" k2="-1" k3="1" operator="arithmetic"/><feColorMatrix values="0 0 0 0 0 0 0 0 0 0 0 0 0 0 0 0 0 0 0.25 0"/><feBlend in2="shape" result="effect1_innerShadow_906_3823"/></filter><clipPath id="a"><path fill="#fff" d="M0 0h110v471H0z"/></clipPath></defs></svg>