<svg xmlns="http://www.w3.org/2000/svg" width="500" height="500" fill="none"><g fill="#0C0D0E" fill-opacity=".02" clip-path="url(#a)"><path d="M237.396 426.732v-25.027l12.513-12.514 12.514 12.514v25.027l-12.514 12.514-12.513-12.514ZM116.068 280.377v17.773h17.773l17.773-17.773h-17.773v-17.773l-17.773 17.773Zm17.773 17.773-12.514 12.514 12.514 12.513h25.027l-12.513-12.513 12.513-12.514h-25.027Zm-17.773 25.027v17.773l7.436 7.436h10.337l12.514-12.514-12.514-12.513h-17.773v-.182Zm0-60.573H98.295l-7.435 7.436v10.337l12.513 12.514 12.514-12.514v-17.773h.181ZM280.196 383.75h17.773v-17.773l-17.773-17.772v17.772h-17.773l17.773 17.773Zm17.773-17.591 12.513 12.513 12.514-12.513v-25.027l-12.514 12.513-12.513-12.513v25.027Zm25.208 17.591h17.773l7.436-7.435v-10.338l-12.514-12.513-12.513 12.513v17.773h-.182Zm-60.754 0v17.773l7.435 7.436h10.338l12.513-12.514-12.513-12.513h-17.773v-.182Zm103.554-121.146v17.773h-17.772l17.772 17.773h17.773v-17.773l-17.773-17.773ZM340.95 298.15l12.514 12.514-12.514 12.513h25.027l12.514-12.513-12.514-12.514H340.95Zm25.027 25.027-12.513 12.514 12.513 12.514h10.338l7.435-7.436v-17.773h-17.773v.181Zm17.773-42.8 12.514 12.514 12.514-12.514V270.04l-7.436-7.436h-17.773v17.773h.181Zm-35.545 68.009v17.773l17.772 17.773h17.773v-17.773l-17.773-17.773h-17.772Zm-110.809 17.773h-17.773v-17.773l-17.773 17.773v17.773h17.773l17.773-17.773ZM201.85 340.95l-12.514 12.514-12.513-12.514v25.027l12.513 12.514 12.514-12.514V340.95Zm-25.027 25.209-12.514-12.514-12.514 12.514v10.337l7.436 7.436h17.773v-17.773h-.181Zm42.8 17.591-12.514 12.514 12.514 12.514h10.337l7.436-7.436v-17.773h-17.773v.181Zm-85.782-35.364-17.773 17.773v17.773h17.773l17.773-17.773v-17.773h-17.773ZM383.75 219.623V201.85h-17.773l-17.772 17.773h17.772v17.773l17.773-17.773Zm-17.773-17.592 12.514-12.513-12.514-12.514H340.95l12.514 12.514-12.514 12.513h25.027Zm17.773-25.208V159.05l-7.435-7.436h-10.338l-12.513 12.514 12.513 12.513h17.773v.182Zm0 60.573h17.773l7.436-7.436v-10.337l-12.514-12.514-12.513 12.514v17.773h-.182Zm42.801 0h-25.028l-12.513 12.513 12.513 12.514h25.028l12.513-12.514-12.513-12.513ZM262.423 134.022h17.773v17.773l17.773-17.773V116.25h-17.773l-17.773 17.772Zm35.546 25.028 12.513-12.514 12.514 12.514v-25.028l-12.514-12.513-12.513 12.513v25.028Zm25.208-25.028 12.514 12.514 12.514-12.514v-10.337l-7.436-7.435h-17.773v17.772h.181Zm-42.981-17.772 12.513-12.514-12.513-12.514h-10.338l-7.435 7.436v17.773h17.773v-.181Zm85.781 35.545 17.773-17.773V116.25h-17.773l-17.772 17.772v17.773h17.772Zm-232.136 85.601v-17.773h17.773l-17.773-17.773h-17.773v17.773l17.773 17.773Zm25.209-35.365-12.514-12.513 12.514-12.514h-25.028l-12.513 12.514 12.513 12.513h25.028Zm-25.209-25.208 12.514-12.514-12.514-12.514h-10.337l-7.436 7.436v17.773h17.773v-.181Zm-17.773 42.8-12.513-12.514-12.514 12.514v10.337l7.436 7.436h17.772v-17.773h-.181Zm-55.314 30.468 12.514 12.513h25.027l12.514-12.513-12.514-12.514H73.268l-12.514 12.514ZM176.823 116.25H159.05l-7.436 7.435v10.337l12.514 12.514 12.513-12.514V116.25h.182Zm60.573 0V98.477l-7.436-7.436h-10.337l-12.514 12.514 12.514 12.513h17.773v.182Zm-85.782 35.545v-17.773l-17.773-17.772h-17.773v17.772l17.773 17.773h17.773Zm85.782-78.527v25.209l12.513 12.513 12.514-12.513V73.449l-12.514-12.513-12.513 12.332Zm-17.773 42.982H201.85v17.772l17.773 17.773v-17.773h17.773l-17.773-17.772Zm-17.773 17.772-12.514-12.513-12.513 12.513v25.028l12.513-12.514 12.514 12.514v-25.028Z"/><path d="m108.814 116.25-5.259 5.259-5.26-5.259H90.86v-7.436l-5.26-5.259 5.26-5.26V90.86h7.435l5.26-5.26 5.259 5.26h7.436v7.435l5.259 5.26-5.259 5.259v7.436h-7.436Zm128.582-42.982V55.495h-17.773L201.85 73.268v17.773h17.773l17.773-17.773ZM159.05 116.25l12.513-12.514-12.513-12.514h-25.028l-12.513 12.514 12.513 12.514h25.028Zm17.773 0h7.435l5.26 5.259 5.259-5.259h7.436v-7.436l5.259-5.259-5.622-5.078V91.04h-7.254l-5.26-5.26-5.259 5.26h-7.436v7.436l-5.259 5.259 5.259 5.259v7.255h.182ZM60.754 250.091l-5.259-5.26v-7.435H48.06l-5.26-5.26-5.26 5.26h-7.435v7.435l-5.26 5.26 5.26 5.259v7.436h7.436l5.26 5.259 5.258-5.259h7.436v-7.436l5.26-5.259ZM249.91 60.754l5.26-5.259h7.435V48.06l5.26-5.26-5.26-5.26v-7.435h-7.435l-5.26-5.26-5.259 5.26h-7.436v7.436l-5.259 5.26 5.259 5.258v7.436h7.436l5.259 5.26Zm-133.841 73.268-12.513-12.513-12.514 12.513v25.028l12.514 12.513 12.513-12.513v-25.028Zm-42.8 128.582H55.495v17.773l17.773 17.773h17.773v-17.773l-17.773-17.773Zm17.773-42.981V201.85H73.268l-17.773 17.773v17.773h17.773l17.773-17.773Zm12.514-12.514 5.259-5.259h7.436v-7.254l5.259-5.26-5.259-5.259v-7.436h-7.436l-5.259-5.259-5.26 5.259H90.86v7.436l-5.26 5.259 5.26 5.26v7.435h7.435l5.26 5.078ZM383.75 159.05l12.514 12.513 12.514-12.513v-25.028l-12.514-12.513-12.514 12.513v25.028Zm55.496 91.041 5.259 5.259v7.436h7.436l5.259 5.259 5.259-5.259h7.436v-7.436l5.259-5.259-5.259-5.26v-7.435h-7.436l-5.259-5.26-5.259 5.26h-7.436v7.435l-5.259 5.26Zm-12.695-12.695h17.773v-17.773l-17.773-17.773h-17.773v17.773l17.773 17.773Zm-17.592 42.981v17.773h17.773l17.773-17.773v-17.773h-17.773l-17.773 17.773ZM383.75 176.823v7.435l-5.259 5.26 5.259 5.259v7.436h7.436l5.259 5.259 5.26-5.259h7.435v-7.617l5.26-5.26-5.26-5.259v-7.436h-7.435l-5.26-5.259-5.259 5.259h-7.436v.182Zm-17.773-60.573 12.514-12.514-12.514-12.514H340.95l-12.513 12.514 12.513 12.514h25.027Zm-85.781-25.209h17.773V73.268l-17.773-17.773h-17.773v17.773l17.773 17.773Zm12.695 12.695 5.259 5.259v7.436h7.436l5.259 5.259 5.259-5.259h7.436v-7.436l5.259-5.259-5.259-5.26v-7.435h-7.436l-5.259-5.26-5.259 5.26h-7.617v7.436l-5.078 5.259ZM116.068 323.177v-7.435l5.26-5.26-5.26-5.259v-7.436h-7.435l-5.26-5.259-5.26 5.259h-7.435v7.436l-4.896 5.441 5.259 5.259v7.436h7.436l5.259 5.259 5.259-5.259h7.073v-.182ZM383.75 116.25h7.436l5.259 5.259 5.26-5.259h7.435v-7.436l5.26-5.259-5.26-5.26V90.86h-7.435l-5.26-5.26-5.259 5.26h-7.436v7.435l-5.259 5.26 5.259 5.259v7.436ZM237.396 280.377v25.027l12.513-12.513 12.514 12.513v-25.027l-12.514-12.513-12.513 12.513Zm146.354 85.782 12.514 12.513 12.514-12.513v-25.027l-12.514-12.514-12.514 12.514v25.027ZM237.396 194.596v25.027l12.513 12.513 12.514-12.513v-25.027l-12.514 12.513-12.513-12.513Zm-30.287 55.495-12.513 12.513h25.027l12.513-12.513-12.513-12.514h-25.027l12.513 12.514Zm12.514 12.513-17.773 17.773h17.773v17.773l17.773-17.773v-17.773h-17.773Zm0-42.981H201.85l17.773 17.773h17.773v-17.773l-17.773-17.773v17.773Zm60.573 17.773-12.514 12.513 12.514 12.514h25.027l-12.514-12.514 12.514-12.513h-25.027Zm121.327 60.754-5.259-5.259-5.259 5.259h-7.436v7.436l-5.259 5.259 5.259 5.259v7.436h7.436l5.259 5.259 5.259-5.259h7.436v-7.436l5.259-5.259-5.259-5.259v-7.436h-7.436Zm-121.327-78.527V201.85l-17.773 17.773v17.773h17.773l17.773-17.773h-17.773Zm-17.773 42.981v17.773l17.773 17.773v-17.773h17.773l-17.773-17.773h-17.773Zm-55.314 133.841-5.259-5.259v-7.436h-7.254l-5.26-5.259-5.259 5.259h-7.436v7.436l-5.259 5.259 5.259 5.26v7.435h7.436l5.259 5.26 5.26-5.26h7.435v-7.435l5.078-5.26Zm12.514 12.514H201.85v17.773l17.773 17.773h17.773v-17.773l-17.773-17.773ZM116.068 340.95l-12.513-12.513-12.514 12.513v25.027l12.514 12.514 12.513-12.514V340.95Zm17.773 42.8-12.513 12.514 12.513 12.514h25.027l12.514-12.514-12.514-12.514h-25.027Zm-17.773 0h-7.435l-5.26-5.259-5.26 5.259h-7.435v7.436l-5.26 5.259 5.26 5.26v7.435h7.436l5.259 5.26 5.26-5.26h7.435v-7.435l5.26-5.26-5.26-5.259v-7.436Zm133.841 55.496-5.259 5.259h-7.436v7.435l-5.259 5.26 5.259 5.259v7.436h7.436l5.259 5.259 5.26-5.259h7.435v-7.436l5.26-5.259-5.26-5.26v-7.435h-7.435l-5.26-5.259Zm91.041-55.496-12.513 12.514 12.513 12.514h25.027l12.514-12.514-12.514-12.514H340.95Zm42.8 0v7.436l-5.259 5.259 5.259 5.26v7.435h7.436l5.259 5.26 5.26-5.26h7.435v-7.435l5.26-5.26-5.26-5.259v-7.436h-7.435l-5.26-5.259-5.259 5.259h-7.436Zm-60.573 0h-7.435l-5.26-5.259-5.259 5.259h-7.254v7.436l-5.26 5.259 5.26 5.26v7.435h7.435l5.26 5.26 5.259-5.26h7.436v-7.435l5.259-5.26-5.259-5.259v-7.436h-.182Zm-60.754 42.982v17.773h17.773l17.773-17.773v-17.773h-17.773l-17.773 17.773Z"/><path d="m250.272 178.455-12.876 3.808v12.333l-17.773-17.773v-25.027l8.705 8.705 11.788-6.348-8.161 17.773 18.317 6.529Zm-.726 0 12.877 3.808v12.333l17.773-17.773v-25.027l-8.705 8.705-11.788-6.348 8.161 17.773-18.318 6.529Zm.726 143.09-12.876-3.808v-12.332l-17.773 17.772v25.028l8.705-8.705 11.788 6.347-8.161-17.773 18.317-6.529Zm17.592 6.71-8.161 17.773 11.788-6.347 8.705 8.705v-25.027l-17.773-17.773v12.332l-12.877 3.809 18.318 6.528Zm-96.119-60.21-17.773-8.161 6.347 11.788-8.705 8.705h25.027l17.773-17.773h-12.332l-3.809-12.876-6.528 18.317Zm6.71-17.592 3.808-12.876h12.332l-17.772-17.773h-25.028l8.705 8.705-6.347 11.789 17.773-8.161 6.529 18.316Zm143.09-.725-3.808 12.876h-12.333l17.773 17.773h25.027l-8.705-8.705 6.348-11.788-17.773 8.161-6.529-18.317Zm6.71-17.773 17.773 8.161-6.347-11.788 8.705-8.705h-25.027l-17.773 17.773h12.332l3.808 12.876 6.529-18.317Zm-146.354-24.483-6.711-18.317-3.808 12.876H159.05l17.773 17.773h25.027l-8.705-8.705 6.347-11.788-17.591 8.161Zm17.228-7.798 11.789-6.348 8.705 8.705v-25.027l-17.773-17.773v12.332l-12.877 3.809 18.317 6.529-8.161 17.773ZM300.87 300.327l-11.788 6.347-8.705-8.705v25.027l17.773 17.773v-12.332l12.876-3.809-18.317-6.71 8.161-17.591Zm17.229-7.617 6.71 18.317 3.809-12.877h12.332l-17.773-17.773h-25.208l8.705 8.705-6.348 11.789 17.773-8.161ZM207.29 318.099l-18.317 6.711 12.877 3.808v12.332l17.773-17.773V298.15l-8.705 8.705-11.789-6.347 8.161 17.591Zm-7.617-17.228-6.347-11.789 8.705-8.705h-25.027l-17.773 17.773h12.332l3.809 12.877 6.71-18.317 17.591 8.161ZM300.326 199.13l6.348 11.788-8.705 8.705h25.027l17.773-17.773h-12.332l-3.809-12.876-6.71 18.317-17.592-8.161Zm-7.798-17.229 18.317-6.71-12.876-3.809V159.05l-17.773 17.773v25.027l8.705-8.705 11.788 6.347-8.161-17.591Z"/><path d="m244.831 237.396 5.26-5.26 5.259 5.26h7.436v7.435l5.259 5.26-5.259 5.259v7.436h-7.436l-5.259 5.259-5.26-5.259h-7.435v-7.436l-5.26-5.259 5.26-5.26v-7.435h7.435Zm17.592-103.373h-25.027l8.705 8.705-5.804 11.425 9.794-4.715 9.793 4.715-5.985-11.425 8.524-8.705Zm0 232.136-8.705-8.705 5.985-11.426-9.794 4.716-9.793-4.716 5.985 11.426-8.705 8.705h25.027ZM133.841 237.396v25.027l8.705-8.705 11.426 5.803-4.716-9.793 4.716-9.793-11.426 5.803-8.705-8.342Zm232.137 0-8.706 8.705-11.425-5.985 4.715 9.793-4.715 9.794 11.425-5.804 8.706 8.705v-25.208ZM176.823 159.05l-8.887 8.886-8.886 8.887h12.332l3.808 12.151 3.446-10.338 10.338-3.446-12.151-3.808V159.05ZM340.95 323.177h-12.332l-3.808-12.15-3.446 10.337-10.337 3.446 12.15 3.808v12.332l8.887-8.886 8.886-8.887Zm-181.9 0 8.886 8.887 8.887 8.886v-12.332l12.151-3.808-10.338-3.446-3.446-10.337-3.808 12.15H159.05ZM323.177 159.05v12.332l-12.15 3.808 10.337 3.446 3.446 10.338 3.808-12.151h12.332l-8.886-8.887-8.887-8.886ZM91.04 12.695 103.556.18h25.027l-12.514 12.514H91.041Zm292.71 456.837v-17.773l-17.773 17.773v-25.027l-12.513 12.513-12.514-12.513v25.027l12.514 12.514 12.513-12.514v17.773h17.773l17.773-17.773H383.75ZM159.05 30.468l-12.514-12.514-12.514 12.514V12.695h-17.773L98.477 30.468h17.772V48.24l17.773-17.773v25.027l12.514-12.514 12.514 12.514V30.468Zm249.728-17.773L396.264.18h-25.027l12.513 12.514h25.028Zm-249.728 0v17.773l17.773 17.773V30.468h17.773l-17.773-17.773h25.027L189.336.18h-25.027l12.514 12.514H159.05Zm-42.982 474.61h17.773v-17.773l12.514 12.514 12.513-12.514v-25.027l-12.513 12.513-12.514-12.513v25.027l-17.773-17.773v17.773H98.477l17.591 17.773ZM383.75 12.695h-17.773v17.773l-12.513-12.514-12.514 12.514v25.027l12.514-12.514 12.513 12.514V30.468L383.75 48.24V30.468h17.773L383.75 12.695Zm-60.573 0-17.773 17.773h17.773V48.24l17.773-17.773V12.695h-17.773L335.691.18h-25.027L298.15 12.695h25.027Zm164.128 310.482 12.514 12.514v-25.027l-12.514-12.514v25.027l-17.773-17.773v17.773h-17.773l17.773 17.773h17.773v-17.773ZM469.532 159.05l-17.773 17.773h17.773v17.772l17.773-17.772v25.027l12.514-12.514v-25.027l-12.514 12.514V159.05h-17.773Zm17.592 224.7v-17.773h-17.773l12.513-12.513-12.513-12.514h-25.027l12.513 12.514-12.513 12.513h25.027l-17.773 17.773h17.773v17.773l17.773-17.773Zm-30.106-237.214-12.513 12.514h25.027l12.514-12.514-12.514-12.514h17.773v-17.773l-17.773-17.772v17.772h-17.773l17.773 17.773h-25.027l12.513 12.514ZM176.823 487.305l17.773-17.773h-17.773v-17.773l-17.773 17.773v17.773h17.773l-12.514 12.514h25.027l12.514-12.514h-25.027Zm206.927 0-12.513 12.514h25.027l12.514-12.514H383.75Zm-60.573 0H298.15l12.514 12.514h25.027l-12.514-12.514Zm0 0h17.773v-17.773l-17.773-17.773v17.773h-17.773l17.773 17.773Zm164.128-371.056 12.514 12.514v-25.027l-12.514-12.514v25.027ZM91.041 487.305l12.514 12.514h25.027l-12.514-12.514H91.041ZM487.305 383.75v25.028l12.514-12.514v-25.027l-12.514 12.513ZM42.981 353.464l12.514-12.514H30.468l-12.514 12.514 12.514 12.513H12.695v17.773l17.773 17.773V383.75H48.24l-17.773-17.773h25.027l-12.514-12.513ZM12.695 383.75.181 371.237v25.027l12.514 12.514V383.75Zm0-206.927 17.773 17.772v-17.772H48.24L30.468 159.05H12.695v17.773L.181 164.309v25.027l12.514 12.514v-25.027ZM30.468 340.95l17.773-17.773H30.468v-17.773l-17.773 17.773V298.15L.181 310.664v25.027l12.514-12.514v17.773h17.773ZM12.695 116.249V91.222L.181 103.736v25.027l12.514-12.514Zm17.773 17.773 17.773-17.773H30.468V98.477l-17.773 17.772v17.773h17.773l-12.695 12.514 12.514 12.514h25.027L42.8 146.536l12.514-12.514H30.468Z"/><path d="M159.05 487.305h-7.436l-5.259-5.259-5.26 5.259h-7.435v7.436L128.4 500h35.546l-5.259-5.259v-7.436h.363Zm206.927 0h-7.435l-5.259-5.259-5.26 5.259h-7.435v7.436l-5.26 5.259h35.546l-5.259-5.259v-7.436h.362ZM133.841 12.695h7.436l5.259 5.26 5.259-5.26h7.436V5.259L164.49 0h-35.546l5.26 5.26v7.435h-.363Zm353.464 121.327v7.436l-5.259 5.259 5.259 5.26v7.435h7.436l5.259 5.26v-35.546l-5.259 5.259h-7.436v-.363ZM5.259 159.05h7.436v-7.436l5.26-5.259-5.26-5.26v-7.435H5.259L0 128.4v35.546l5.26-4.896Zm489.3 181.9h-7.435v7.436l-5.26 5.259 5.26 5.26v7.435h7.435l5.26 5.26v-35.546l-5.26 4.896ZM12.695 366.159v-7.436l5.26-5.259-5.26-5.259v-7.436H5.259L0 335.51v35.545l5.26-5.259h7.435v.363ZM335.328.181l4.897 5.26v7.435h7.435l5.26 5.26 5.259-5.26h7.436V5.441l5.259-5.26h-35.546ZM469.532 12.695l-12.514 12.514-12.513-12.514V.181h25.027v12.514Zm-439.064 0L17.954.181l-5.259 5.26H5.259v7.435L0 18.136l12.514 12.513h17.773V12.695h.18Zm189.155 0H201.85l17.773 17.773h17.773V12.695l12.513 12.514 12.514-12.514V.181h-25.027v12.514L224.882.181l-5.259 5.26v7.254ZM.181 55.676h12.514l12.514-12.513-12.514-12.514H.181v25.027Zm30.287-25.208v7.436l-5.26 5.259 5.26 5.26v7.435h7.436l5.259 5.26 5.26-5.26h7.435v-7.436l5.26-5.26-5.26-5.258v-7.436h-7.436l-5.26-5.26-5.258 5.26h-7.436Zm25.027-17.773V.181H30.468v12.514L42.98 25.209l12.514-12.514Zm-12.514 48.06L30.468 73.267v25.209L42.98 85.963l5.26 5.26h7.435V73.448L73.45 91.222h17.773V73.45L73.45 55.676h17.773V73.45l12.514 12.514 12.513-12.514v17.773h17.773l12.514-12.513-5.259-5.26h-7.436V55.676L116.068 73.45V48.422l-12.513 12.514-5.26-5.26H90.86v-7.435l-5.26-5.26 12.514-12.513H73.087L60.573 42.98l12.514 12.514H55.314v17.773L42.98 60.754Zm267.683 25.208 12.513-12.514v17.773h17.773l12.514-12.513-5.259-5.26h-7.436V55.676L322.996 73.45V48.422l-12.514 12.514-5.259-5.26h-7.254V73.45l12.695 12.514Zm-12.695 358.542h-17.773l-12.514 12.514 12.514 12.513h25.027l-12.514-12.513 5.26-5.26v-7.254ZM280.196 30.468 267.682 42.98l12.514 12.514h17.773V48.06l-5.26-5.26 12.514-12.513h-25.027v.18Zm85.781 378.491-12.513 12.514 5.259 5.259h7.436v17.773l17.773-17.773v25.027l12.513-12.513 5.26 5.259h7.435v-17.773l-12.513-12.514-12.514 12.514v-17.773h-18.136Zm-55.313 30.287 12.513 12.513v-25.027l17.773 17.773v-17.773h7.436l5.259-5.259-12.513-12.514h-17.773v17.773l-12.514-12.514-12.876 12.514v17.773h7.435l5.26-5.259ZM426.551 12.695h-17.773l17.773 17.773h17.773V12.695L431.81.181l-5.259 5.26v7.254ZM262.423 30.468h17.773l17.773-17.773h-17.773V5.259L274.936 0l-12.513 12.514v17.954Zm194.595 408.778 12.514-12.514v-25.027l-12.514 12.513-5.259-5.259h-7.435v17.773l-17.773-17.773h-17.773v17.773l17.773 17.773h-17.773v7.435l5.259 5.26-12.514 12.513h25.028l12.513-12.513-12.513-12.514h17.773v-17.954l12.694 12.514Zm37.36-433.805h-7.254l-5.26-5.26-12.513 12.514v17.773h17.773l12.513-12.514-5.259-5.259V5.441ZM280.196 487.305h17.773l-17.773-17.773h-17.773v17.773l12.513 12.514 5.26-5.26v-7.254Zm219.623-42.8h-12.514l-12.514 12.514 12.514 12.513h12.514v-25.027Zm-30.287 42.8 12.514 12.514 5.259-5.26h7.436v-7.435l5.259-5.26-12.514-12.513h-17.773v17.954h-.181Zm-25.208 0v12.514h25.027v-12.514l-12.514-12.514-12.513 12.514Zm25.208-17.773v-7.436l5.259-5.259-5.259-5.259v-7.436h-7.436l-5.259-5.259-5.259 5.259h-7.436v7.436l-5.259 5.259 5.259 5.259v7.436h7.436l5.259 5.259 5.259-5.259h7.436Zm-280.196-55.314-12.513 12.514v-17.773H159.05l-12.514 12.514 5.259 5.259h7.436v17.773l17.773-17.773v25.027l12.514-12.513 5.259 5.259h7.436v-17.773l-12.877-12.514ZM42.981 474.791l-12.513 12.514v12.514h25.027v-12.514l-12.514-12.514Zm194.415-5.259h-17.773l-17.773 17.773h17.773v7.436l5.259 5.259 12.514-12.514v-17.954ZM469.532 30.468h-7.436l-5.259-5.26-5.259 5.26h-7.436v7.436l-5.259 5.259 5.259 5.26v7.435h7.436l5.259 5.26 5.259-5.26h7.436v-7.436l5.259-5.26-5.259-5.258v-7.436ZM30.468 469.532h7.436l5.259 5.259 5.26-5.259h7.435v-7.436l5.26-5.259-5.26-5.259v-7.436h-7.436l-5.26-5.259-5.258 5.259h-7.436v7.436l-5.26 5.259 5.26 5.259v7.436Zm-17.773 0L.181 482.046l5.26 5.259v7.436h7.435l5.26 5.259 12.513-12.514v-17.773H12.695v-.181Zm0-25.027H.181v25.027h12.514l12.514-12.513-12.514-12.514Zm48.06 12.514 12.513 12.513h25.209l-12.514-12.513 5.26-5.26v-7.435H73.448l17.773-17.773v-17.773H73.45l-17.773 17.773v-17.773h-7.435l-5.26 5.259-12.513-12.514v25.209l12.513 12.514 12.514-12.514v17.773h17.773l-12.514 12.514Zm-5.26-254.988h17.773l12.514-12.513-12.514-12.514h17.773v-17.773l-12.514-12.514-5.259 5.26v7.435H55.495l17.773 17.773H48.241l12.513 12.514-5.259 5.259v7.073Zm0 285.274 12.514 12.514 5.259-5.26v-7.435h17.773l-17.773-17.773H55.495v17.954Zm401.523-194.414 12.514 12.513v-25.027l-12.514-12.513-12.513 12.513v17.773h7.436l5.077-5.259Zm0-60.573 12.514-12.514v-25.208l-12.514 12.513-5.259-5.259h-7.435v17.773l12.694 12.695ZM431.81 499.819l12.514-12.514v-17.773h-17.773l-17.773 17.773h17.773v7.436l5.259 5.078Zm-181.901-25.028-12.513 12.514v12.514h25.027v-12.514l-12.514-12.514Zm159.05-340.769 12.514 12.514 5.259-5.259v-7.436h17.773l-17.773-17.773h25.027l-12.513-12.513 5.259-5.26V90.86h-17.773l-12.514 12.513 12.514 12.514h-17.773v18.135Zm35.365 164.128h-17.773l-12.514 12.514 12.514 12.513h-17.773v17.773l12.513 12.514 5.26-5.259v-7.436h17.773l-17.773-17.773h25.027l-12.514-12.514 5.26-5.259v-7.073Zm-17.592-121.327 17.773-17.773h-17.773v-7.436l-5.259-5.259-12.514 12.513v17.773l17.773.182-12.695 12.513 12.514 12.514h17.773v-7.254l-5.26-5.26 12.514-12.513h-24.846Zm42.8 267.682h17.773l12.514-12.514-5.26-5.259h-7.435v-17.773l-17.773 17.773v17.773h.181Zm17.773-388.829h12.514V30.65h-12.514l-12.514 12.514 12.514 12.514ZM219.623 469.532l12.513-12.513-12.513-12.514H201.85v7.435l5.259 5.26-12.513 12.513h25.027v-.181ZM469.532 55.676V73.45l17.773 17.773V73.45h7.436L500 68.19l-12.514-12.514h-17.954ZM408.959 383.75h17.773l-12.514 12.514 12.514 12.514h17.773v-7.436l-5.259-5.259 12.513-12.514h-25.027l17.773-17.773h-17.773v-7.435l-5.259-5.26-12.514 12.514v18.135Zm60.573-146.354h17.773l12.514-12.514-5.26-5.259h-7.435V201.85l-17.773 17.773v17.773h.181Zm5.078 12.695 12.514 12.513h12.513v-25.027h-12.513l-12.514 12.514Zm-5.078 30.286 17.773 17.773v-17.773h7.436l5.259-5.259-12.514-12.514h-17.773v17.773h-.181ZM91.041 366.159l-12.514-12.514-5.259 5.26v7.435H55.495l17.773 17.773H48.241l12.513 12.514-5.259 5.259v7.436h17.773l12.514-12.514-12.514-12.513h17.773v-18.136Zm-48.06-98.295-12.513 12.513v25.027l12.513-12.513 5.26 5.259h7.435v-17.773l-12.695-12.513Zm73.087 141.095v17.773l-12.513-12.514-12.514 12.514v17.773h7.436l5.259-5.259 12.513 12.513v-25.027l17.773 17.773v-17.773h7.436l5.259-5.259-12.513-12.514h-18.136Zm-42.8-85.782L55.495 340.95h17.773v7.436l5.26 5.259 12.513-12.513v-17.773l-17.773-.182 12.695-12.513-12.514-12.514H55.676v7.436l5.26 5.259-12.514 12.514h24.846v-.182ZM68.008.181 55.496 12.695v17.773h17.773l17.773-17.773H73.268V5.259L68.008.181Zm121.328 60.573-12.513-12.513v25.027L159.05 55.495v17.773h-7.436l-5.259 5.26 12.513 12.513h17.773V73.268l12.514 12.514 12.513-12.514V55.495h-7.072l-5.26 5.26Zm12.514-5.078h17.773l12.513-12.513-12.513-12.514h-25.027l12.513 12.514-5.259 5.26v7.253ZM91.04 116.25H73.269l12.514-12.514-12.514-12.514H55.495v7.436l5.26 5.259-12.514 12.514h25.027l-17.773 17.773h17.773v7.435l5.26 5.26 12.513-12.514V116.25Zm-48.059 90.859-12.513-12.513v25.027l12.513 12.513 12.514-12.513V201.85H48.06l-5.079 5.259Zm-12.513 55.495H12.695L.181 275.118l5.26 5.259h7.435v17.773l17.773-17.773v-17.773h-.181Zm0-42.981L12.695 201.85v17.773H5.259L0 224.882l12.514 12.514h17.773v-17.773h.18Zm-5.26 30.468-12.513-12.514H.181v25.027h12.514l12.514-12.513Zm5.26 194.414v-17.773l-17.773-17.773v17.773H5.259L0 431.991l12.514 12.514h17.954ZM439.246 43.163l-12.514-12.514h-25.027l12.513 12.514-5.259 5.26v7.435h-7.436l-5.259 5.26-12.514-12.514V73.63l-17.773-17.773V73.63h-7.435l-5.259 5.26 12.513 12.513h17.773V73.63l12.514 12.513 12.513-12.513V55.858h17.773L408.596 73.63v17.773h17.773l17.773-17.773v17.773h7.436l5.259-5.26 12.514 12.514V73.631l-12.514-12.514-12.513 12.514V55.858h-17.592l12.514-12.695ZM30.468 55.677H12.695L.181 68.19l5.26 5.26h7.435v17.772L30.65 73.45V55.676h-.181Z"/></g><defs><clipPath id="a"><path fill="#fff" d="M0 0h500v500H0z"/></clipPath></defs></svg>